<?xml version="1.0" encoding="UTF-8" standalone="no"?>
<!-- Created with Inkscape (http://www.inkscape.org/) -->

<svg
   xmlns:dc="http://purl.org/dc/elements/1.1/"
   xmlns:cc="http://creativecommons.org/ns#"
   xmlns:rdf="http://www.w3.org/1999/02/22-rdf-syntax-ns#"
   xmlns:svg="http://www.w3.org/2000/svg"
   xmlns="http://www.w3.org/2000/svg"
   xmlns:sodipodi="http://sodipodi.sourceforge.net/DTD/sodipodi-0.dtd"
   xmlns:inkscape="http://www.inkscape.org/namespaces/inkscape"
   width="130.58244mm"
   height="77.934647mm"
   viewBox="0 0 130.58244 77.934647"
   version="1.1"
   id="svg293"
   inkscape:version="0.92.5 (0.92.5+69)"
   sodipodi:docname="razor-straight.svg"
   inkscape:export-filename="/home/algot/Documents/runeman.org/clipart/2021/razor-straight.png"
   inkscape:export-xdpi="58.353939"
   inkscape:export-ydpi="58.353939">
  <title
     id="title416">Straight Razor</title>
  <defs
     id="defs287">
    <filter
       inkscape:collect="always"
       style="color-interpolation-filters:sRGB"
       id="filter2766"
       x="-0.0094270706"
       width="1.0188541"
       y="-0.016504599"
       height="1.0330092">
      <feGaussianBlur
         inkscape:collect="always"
         stdDeviation="0.42517137"
         id="feGaussianBlur2768" />
    </filter>
    <filter
       inkscape:collect="always"
       style="color-interpolation-filters:sRGB"
       id="filter1991"
       x="-0.010492611"
       width="1.0209852"
       y="-0.014013158"
       height="1.0280263">
      <feGaussianBlur
         inkscape:collect="always"
         stdDeviation="0.26750148"
         id="feGaussianBlur1993" />
    </filter>
    <filter
       inkscape:collect="always"
       style="color-interpolation-filters:sRGB"
       id="filter2009"
       x="-0.010522613"
       width="1.0210452"
       y="-0.01396"
       height="1.02792">
      <feGaussianBlur
         inkscape:collect="always"
         stdDeviation="0.26298033"
         id="feGaussianBlur2011" />
    </filter>
    <filter
       inkscape:collect="always"
       style="color-interpolation-filters:sRGB"
       id="filter2109"
       x="-0.14940459"
       width="1.2988092"
       y="-0.19188236"
       height="1.3837647">
      <feGaussianBlur
         inkscape:collect="always"
         stdDeviation="2.4579995"
         id="feGaussianBlur2111" />
    </filter>
    <filter
       inkscape:collect="always"
       style="color-interpolation-filters:sRGB"
       id="filter2131"
       x="-0.027994001"
       width="1.055988"
       y="-0.050419446"
       height="1.1008389">
      <feGaussianBlur
         inkscape:collect="always"
         stdDeviation="0.13359653"
         id="feGaussianBlur2133" />
    </filter>
    <filter
       inkscape:collect="always"
       style="color-interpolation-filters:sRGB"
       id="filter2162"
       x="-0.059970669"
       width="1.1199414"
       y="-0.060029358"
       height="1.1200587">
      <feGaussianBlur
         inkscape:collect="always"
         stdDeviation="0.2995605"
         id="feGaussianBlur2164" />
    </filter>
  </defs>
  <sodipodi:namedview
     id="base"
     pagecolor="#ffffff"
     bordercolor="#666666"
     borderopacity="1.0"
     inkscape:pageopacity="0.0"
     inkscape:pageshadow="2"
     inkscape:zoom="0.35"
     inkscape:cx="-213.80601"
     inkscape:cy="-227.00766"
     inkscape:document-units="mm"
     inkscape:current-layer="layer1"
     showgrid="false"
     inkscape:window-width="1366"
     inkscape:window-height="703"
     inkscape:window-x="0"
     inkscape:window-y="0"
     inkscape:window-maximized="1" />
  <metadata
     id="metadata290">
    <rdf:RDF>
      <cc:Work
         rdf:about="">
        <dc:format>image/svg+xml</dc:format>
        <dc:type
           rdf:resource="http://purl.org/dc/dcmitype/StillImage" />
        <dc:title>Straight Razor</dc:title>
        <dc:date>2021-09-05</dc:date>
        <dc:creator>
          <cc:Agent>
            <dc:title>Algot Runeman</dc:title>
          </cc:Agent>
        </dc:creator>
        <dc:rights>
          <cc:Agent>
            <dc:title>Algot Runeman</dc:title>
          </cc:Agent>
        </dc:rights>
        <dc:publisher>
          <cc:Agent>
            <dc:title>runeman.org</dc:title>
          </cc:Agent>
        </dc:publisher>
        <dc:identifier>razor-straight.svg</dc:identifier>
        <dc:language>en-US</dc:language>
        <dc:coverage>worldwide</dc:coverage>
        <cc:license
           rdf:resource="http://creativecommons.org/publicdomain/zero/1.0/" />
      </cc:Work>
      <cc:License
         rdf:about="http://creativecommons.org/publicdomain/zero/1.0/">
        <cc:permits
           rdf:resource="http://creativecommons.org/ns#Reproduction" />
        <cc:permits
           rdf:resource="http://creativecommons.org/ns#Distribution" />
        <cc:permits
           rdf:resource="http://creativecommons.org/ns#DerivativeWorks" />
      </cc:License>
    </rdf:RDF>
  </metadata>
  <g
     inkscape:label="Layer 1"
     inkscape:groupmode="layer"
     id="layer1"
     transform="translate(-42.962363,-10.836246)">
    <g
       id="g2934"
       transform="matrix(0.444903,0,0,0.444903,186.08972,-15.856886)">
      <g
         style="fill:#000000;filter:url(#filter2766)"
         id="g2760"
         transform="matrix(2.6613927,0,0,2.6613927,54.21595,-58.499399)">
        <path
           sodipodi:nodetypes="ccssccccsssssssssscccc"
           inkscape:connector-curvature="0"
           id="path2736"
           d="m -109.27292,47.497917 c -6.1725,2.280772 -9.16111,6.160167 -8.20208,9.789584 18.877472,14.768919 37.634605,28.736378 40.216668,28.574999 0,0 2.874876,0.127346 4.233333,-0.264583 1.061767,-0.306331 2.910417,-1.5875 2.910417,-1.5875 l 6.085416,4.497917 6.35,4.762499 8.995833,7.143747 c 0,0 0.769724,1.49518 1.322917,2.11667 0.750937,0.84364 1.681857,1.72095 2.57048,2.41808 1.138077,0.89282 2.216567,1.70678 3.514937,2.34442 1.555307,0.76383 3.317009,1.26959 5.027083,1.54898 1.308505,0.21378 3.000551,0.94432 3.96875,0.0385 0.450825,-0.42177 0.324565,-1.32692 0,-1.85208 -0.207358,-0.33551 -0.677294,-0.42731 -1.058334,-0.52917 -1.450953,-0.38785 -2.154053,-0.0627 -4.497916,0.0368 -0.710408,0.0302 -1.632508,-0.44502 -2.228847,-0.83228 -1.375856,-0.89347 -2.956058,-1.79012 -3.893396,-3.13647 -0.733714,-1.05388 -0.756924,-4.00558 -0.756924,-4.00558 l -5.820833,-6.879167 -18.520833,-15.610416 z"
           style="fill:#000000;stroke:#000000;stroke-width:0.1;stroke-linecap:butt;stroke-linejoin:miter;stroke-opacity:1" />
        <circle
           r="5.5562501"
           cy="102.53125"
           cx="-134.67291"
           id="circle2738"
           style="opacity:1;fill:#000000;fill-opacity:1;stroke:none;stroke-width:0.0875;stroke-linecap:round;stroke-linejoin:bevel;stroke-opacity:1" />
        <circle
           r="3.1934135"
           cy="95.369087"
           cx="-43.90242"
           id="circle2740"
           style="opacity:1;fill:#000000;fill-opacity:1;stroke:none;stroke-width:0.10495299;stroke-linecap:round;stroke-linejoin:bevel;stroke-opacity:1" />
        <path
           sodipodi:nodetypes="ccccc"
           inkscape:connector-curvature="0"
           id="path2742"
           d="m -134.40833,96.710417 c 25.52512,2.961686 55.525694,1.749325 90.222914,-4.46109 l 1.322917,6.04859 c -32.2335,10.793883 -63.009241,12.355273 -93.133331,9.789583 z"
           style="fill:#000000;stroke:#000000;stroke-width:0.26458332px;stroke-linecap:butt;stroke-linejoin:miter;stroke-opacity:1" />
        <circle
           r="1.7197917"
           cy="96.578117"
           cx="-49.609375"
           id="circle2744"
           style="opacity:1;fill:#000000;fill-opacity:1;stroke:none;stroke-width:0.14444445;stroke-linecap:round;stroke-linejoin:bevel;stroke-opacity:1" />
        <path
           sodipodi:nodetypes="ccccccc"
           inkscape:connector-curvature="0"
           id="path2746"
           d="m -107.90482,48.03525 38.279087,27.729732 8.439483,7.836662 11.754993,9.645123 L -68.118682,78.477673 -109.41187,48.03525 Z"
           style="fill:#000000;stroke:#000000;stroke-width:0.26458332px;stroke-linecap:butt;stroke-linejoin:miter;stroke-opacity:1;filter:url(#filter1991)" />
        <path
           style="fill:#000000;stroke:none;stroke-width:0.26458332px;stroke-linecap:butt;stroke-linejoin:miter;stroke-opacity:1;filter:url(#filter2009)"
           d="m -107.90482,48.03525 38.279087,27.729732 8.439483,7.836662 11.754993,9.645123 L -68.118682,78.176263 -109.41187,48.03525 Z"
           id="path2748"
           inkscape:connector-curvature="0"
           sodipodi:nodetypes="ccccccc" />
        <circle
           style="opacity:1;fill:#000000;fill-opacity:1;stroke:none;stroke-width:0.14444445;stroke-linecap:round;stroke-linejoin:bevel;stroke-opacity:1"
           id="circle2750"
           cx="-131.59293"
           cy="102.90773"
           r="1.7197917" />
        <path
           transform="matrix(1.0499149,0,0,1.0248908,5.816892,-1.0429526)"
           inkscape:connector-curvature="0"
           id="path2752"
           d="m -112.12456,51.652173 3.61692,-0.904232 34.059345,25.619861 1.808459,5.123971 -6.0282,-1.20564 -31.346654,-23.8114 z"
           style="fill:#000000;stroke:none;stroke-width:0.26458332px;stroke-linecap:butt;stroke-linejoin:miter;stroke-opacity:1;filter:url(#filter2109)" />
        <path
           sodipodi:nodetypes="cscscc"
           inkscape:connector-curvature="0"
           id="path2754"
           d="m -68.420093,78.779081 c 0,0 -4.117497,3.905355 -6.631022,5.123973 -1.118251,0.542155 -3.616923,0.90423 -3.616923,0.90423 0,0 1.614763,0.448659 2.411283,0.30141 3.359065,-0.620974 9.042302,-4.822563 9.042302,-4.822563 z"
           style="fill:#000000;stroke:none;stroke-width:0.26458332px;stroke-linecap:butt;stroke-linejoin:miter;stroke-opacity:1;filter:url(#filter2131)" />
        <path
           sodipodi:nodetypes="cccccc"
           inkscape:connector-curvature="0"
           id="path2756"
           d="m -66.913042,79.834017 -4.822563,4.069037 h 1.507051 l 14.015569,10.323294 5.726792,-1.280992 z"
           style="fill:#000000;stroke:none;stroke-width:0.26458332px;stroke-linecap:butt;stroke-linejoin:miter;stroke-opacity:1" />
        <path
           inkscape:connector-curvature="0"
           id="path2758"
           transform="scale(0.26458333)"
           d="m -187.5,358.51953 a 6.4999999,6.4999999 0 0 0 -6.5,6.5 6.4999999,6.4999999 0 0 0 3.01172,5.47656 6.4999999,6.4999999 0 0 1 -1.01172,-3.47656 6.4999999,6.4999999 0 0 1 6.5,-6.5 6.4999999,6.4999999 0 0 1 3.48828,1.02344 6.4999999,6.4999999 0 0 0 -5.48828,-3.02344 z"
           style="opacity:1;fill:#000000;fill-opacity:1;stroke:none;stroke-width:0.54593176;stroke-linecap:round;stroke-linejoin:bevel;stroke-opacity:1;filter:url(#filter2162)" />
      </g>
      <g
         transform="matrix(2.6613927,0,0,2.6613927,53.157616,-59.557733)"
         id="g2178">
        <path
           style="fill:#cccccc;stroke:#000000;stroke-width:0.1;stroke-linecap:butt;stroke-linejoin:miter;stroke-opacity:1"
           d="m -109.27292,47.497917 c -6.1725,2.280772 -9.16111,6.160167 -8.20208,9.789584 18.877472,14.768919 37.634605,28.736378 40.216668,28.574999 0,0 2.874876,0.127346 4.233333,-0.264583 1.061767,-0.306331 2.910417,-1.5875 2.910417,-1.5875 l 6.085416,4.497917 6.35,4.762499 8.995833,7.143747 c 0,0 0.769724,1.49518 1.322917,2.11667 0.750937,0.84364 1.681857,1.72095 2.57048,2.41808 1.138077,0.89282 2.216567,1.70678 3.514937,2.34442 1.555307,0.76383 3.317009,1.26959 5.027083,1.54898 1.308505,0.21378 3.000551,0.94432 3.96875,0.0385 0.450825,-0.42177 0.324565,-1.32692 0,-1.85208 -0.207358,-0.33551 -0.677294,-0.42731 -1.058334,-0.52917 -1.450953,-0.38785 -2.154053,-0.0627 -4.497916,0.0368 -0.710408,0.0302 -1.632508,-0.44502 -2.228847,-0.83228 -1.375856,-0.89347 -2.956058,-1.79012 -3.893396,-3.13647 -0.733714,-1.05388 -0.756924,-4.00558 -0.756924,-4.00558 l -5.820833,-6.879167 -18.520833,-15.610416 z"
           id="path1434"
           inkscape:connector-curvature="0"
           sodipodi:nodetypes="ccssccccsssssssssscccc" />
        <circle
           style="opacity:1;fill:#000000;fill-opacity:1;stroke:none;stroke-width:0.0875;stroke-linecap:round;stroke-linejoin:bevel;stroke-opacity:1"
           id="path1428"
           cx="-134.67291"
           cy="102.53125"
           r="5.5562501" />
        <circle
           style="opacity:1;fill:#000000;fill-opacity:1;stroke:none;stroke-width:0.10495299;stroke-linecap:round;stroke-linejoin:bevel;stroke-opacity:1"
           id="path1430"
           cx="-43.90242"
           cy="95.369087"
           r="3.1934135" />
        <path
           style="fill:#000000;stroke:#000000;stroke-width:0.26458332px;stroke-linecap:butt;stroke-linejoin:miter;stroke-opacity:1"
           d="m -134.40833,97.004714 c 25.52512,2.961686 55.525694,1.455028 90.222914,-4.755387 l 1.322917,6.04859 c -32.2335,10.793883 -63.009241,12.060973 -93.133331,9.495283 z"
           id="path1432"
           inkscape:connector-curvature="0"
           sodipodi:nodetypes="ccccc" />
        <circle
           style="opacity:1;fill:#f2f2f2;fill-opacity:1;stroke:none;stroke-width:0.14444445;stroke-linecap:round;stroke-linejoin:bevel;stroke-opacity:1"
           id="path1436"
           cx="-49.609375"
           cy="96.578117"
           r="1.7197917" />
        <path
           style="fill:#333333;stroke:#000000;stroke-width:0.26458332px;stroke-linecap:butt;stroke-linejoin:miter;stroke-opacity:1;filter:url(#filter1991)"
           d="m -107.90482,48.03525 38.279087,27.729732 8.439483,7.836662 11.754993,9.645123 L -68.118682,78.477673 -109.41187,48.03525 Z"
           id="path1438"
           inkscape:connector-curvature="0"
           sodipodi:nodetypes="ccccccc" />
        <path
           sodipodi:nodetypes="ccccccc"
           inkscape:connector-curvature="0"
           id="path1995"
           d="m -107.90482,48.03525 38.279087,27.729732 8.439483,7.836662 11.754993,9.645123 L -68.118682,78.176263 -109.41187,48.03525 Z"
           style="fill:#ffffff;stroke:none;stroke-width:0.26458332px;stroke-linecap:butt;stroke-linejoin:miter;stroke-opacity:1;filter:url(#filter2009)" />
        <circle
           r="1.7197917"
           cy="102.90773"
           cx="-131.59293"
           id="circle2013"
           style="opacity:1;fill:#ffffff;fill-opacity:1;stroke:none;stroke-width:0.14444445;stroke-linecap:round;stroke-linejoin:bevel;stroke-opacity:1" />
        <path
           style="fill:#ffffff;stroke:none;stroke-width:0.26458332px;stroke-linecap:butt;stroke-linejoin:miter;stroke-opacity:1;filter:url(#filter2109)"
           d="m -112.12456,51.652173 3.61692,-0.904232 34.059345,25.619861 1.808459,5.123971 -6.0282,-1.20564 -31.346654,-23.8114 z"
           id="path2015"
           inkscape:connector-curvature="0"
           transform="matrix(1.0499149,0,0,1.0248908,5.816892,-1.0429526)" />
        <path
           style="fill:#ffffff;stroke:none;stroke-width:0.26458332px;stroke-linecap:butt;stroke-linejoin:miter;stroke-opacity:1;filter:url(#filter2131)"
           d="m -68.420093,78.779081 c 0,0 -4.117497,3.905355 -6.631022,5.123973 -1.118251,0.542155 -3.616923,0.90423 -3.616923,0.90423 0,0 1.614763,0.448659 2.411283,0.30141 3.359065,-0.620974 9.042302,-4.822563 9.042302,-4.822563 z"
           id="path2113"
           inkscape:connector-curvature="0"
           sodipodi:nodetypes="cscscc" />
        <path
           style="fill:#b3b3b3;stroke:none;stroke-width:0.26458332px;stroke-linecap:butt;stroke-linejoin:miter;stroke-opacity:1"
           d="m -66.913042,79.834017 -4.822563,4.069037 h 1.507051 l 14.015569,10.323294 5.726792,-1.280992 z"
           id="path2135"
           inkscape:connector-curvature="0"
           sodipodi:nodetypes="cccccc" />
        <path
           style="opacity:1;fill:#ffffff;fill-opacity:1;stroke:none;stroke-width:0.54593176;stroke-linecap:round;stroke-linejoin:bevel;stroke-opacity:1;filter:url(#filter2162)"
           d="m -187.5,358.51953 a 6.4999999,6.4999999 0 0 0 -6.5,6.5 6.4999999,6.4999999 0 0 0 3.01172,5.47656 6.4999999,6.4999999 0 0 1 -1.01172,-3.47656 6.4999999,6.4999999 0 0 1 6.5,-6.5 6.4999999,6.4999999 0 0 1 3.48828,1.02344 6.4999999,6.4999999 0 0 0 -5.48828,-3.02344 z"
           transform="scale(0.26458333)"
           id="circle2137"
           inkscape:connector-curvature="0" />
      </g>
    </g>
  </g>
</svg>
